<svg width="132" height="132" viewBox="0 0 132 132" fill="none" xmlns="http://www.w3.org/2000/svg">
<g id="logo" filter="url(#filter0_d_3_26)">
<g id="Ellipse 8">
<circle cx="60.0365" cy="59.0365" r="45.0365" fill="#D9D9D9" fill-opacity="0.5"/>
<circle cx="60.0365" cy="59.0365" r="45.0365" fill="url(#paint0_linear_3_26)"/>
</g>
<g id="Vector 3">
<path d="M52.877 14.5212C44.2498 26.4012 47.2737 58.8255 24.2382 86.1585C26.942 90.1601 32.9544 95.0312 35.6226 96.9666C86.8521 71.5095 69.4195 44.8964 95.7458 31.7659C92.9887 27.3891 76.3572 10.9483 52.877 14.5212Z" fill="#D9D9D9" fill-opacity="0.75"/>
<path d="M52.877 14.5212C44.2498 26.4012 47.2737 58.8255 24.2382 86.1585C26.942 90.1601 32.9544 95.0312 35.6226 96.9666C86.8521 71.5095 69.4195 44.8964 95.7458 31.7659C92.9887 27.3891 76.3572 10.9483 52.877 14.5212Z" fill="url(#paint1_linear_3_26)" fill-opacity="0.25"/>
</g>
<g id="Vector 2">
<path d="M95.505 31.4105C68.9237 46.113 84.075 74.204 35.6084 96.8777C54.7067 108.781 72.739 103.451 82.5103 98.2102C109.337 83.2868 109.959 48.7322 95.505 31.4105Z" fill="#D9D9D9" fill-opacity="0.75"/>
<path d="M95.505 31.4105C68.9237 46.113 84.075 74.204 35.6084 96.8777C54.7067 108.781 72.739 103.451 82.5103 98.2102C109.337 83.2868 109.959 48.7322 95.505 31.4105Z" fill="url(#paint2_radial_3_26)"/>
</g>
<g id="Vector 1">
<path d="M95.4793 86.9289C95.0007 86.6098 93.4478 86.0042 93.3931 85.9483C92.0485 85.8506 90.8414 86.6455 89.0836 85.0634C88.8171 84.5305 76.6475 86.9289 75.4039 86.9289C74.1958 87.4263 70.1038 87.8468 68.2087 87.9948C66.5506 88.439 63.181 89.3806 62.9678 89.5938C62.7013 89.8602 56.3944 90.3932 55.8615 90.482C55.3285 90.5709 48.4886 91.6368 48.1333 91.7257C47.778 91.8145 44.9355 92.3475 45.2908 90.1267C45.4898 88.8831 47.6003 87.6691 48.5775 87.5507C46.5344 87.3434 42.4305 86.6801 42.3594 85.6853C41.6488 83.6422 43.6918 83.198 44.136 83.1092C44.1952 82.9612 45.2375 82.7539 48.9328 83.1092C50.887 83.2971 50.887 83.731 54.8843 83.731C52.634 82.5762 48.1333 80.1956 48.1333 79.9113C48.1333 79.556 48.2221 77.9571 50.7094 77.8683C51.5088 77.8397 53.848 79.023 54.1737 79.6448C55.6542 80.3851 58.7928 81.8656 59.5035 81.8656C60.2141 81.8656 62.7013 82.2209 63.5008 81.8656C61.9907 81.2142 58.9172 79.858 58.704 79.6448C58.4908 79.4317 56.7201 79.0231 55.8615 78.8454C55.7134 77.9275 56.0747 76.1983 58.704 76.6247C59.77 76.7668 60.3918 77.0984 60.5694 77.2465C62.6125 78.1348 67.1961 79.4672 67.4093 79.4672C70.163 76.98 74.9598 74.2263 74.338 72.1832C74.0123 71.591 72.9345 70.4066 71.2289 70.4066C67.8534 69.8737 64.8332 69.7848 62.879 67.2976C61.9907 66.4093 60.9247 65.521 61.1912 63.8333C61.2504 63.3595 61.7064 62.4653 63.0566 62.6785C64.7444 62.945 66.0768 64.0109 67.1428 64.0998C67.9955 64.1708 69.097 64.3662 69.5412 64.4551C70.4887 64.7808 72.4548 65.4322 72.739 65.4322C73.0943 65.4322 78.7794 66.1428 79.1347 66.1428C79.4901 66.1428 86.2411 67.2976 87.6624 67.8306C89.0836 68.3636 89.8831 68.1859 91.6597 69.0742C93.4363 69.9625 97.6112 72.1832 98.1442 72.1832C98.6772 72.1832 101.875 73.9598 102.408 73.9598C102.941 73.9598 98.4995 84.264 95.4793 86.9289Z" fill="#9AE0D3"/>
<path d="M95.4793 86.9289C95.0007 86.6098 93.4478 86.0042 93.3931 85.9483C92.0485 85.8506 90.8414 86.6455 89.0836 85.0634C88.8171 84.5305 76.6475 86.9289 75.4039 86.9289C74.1958 87.4263 70.1038 87.8468 68.2087 87.9948C66.5506 88.439 63.181 89.3806 62.9678 89.5938C62.7013 89.8602 56.3944 90.3932 55.8615 90.482C55.3285 90.5709 48.4886 91.6368 48.1333 91.7257C47.778 91.8145 44.9355 92.3475 45.2908 90.1267C45.4898 88.8831 47.6003 87.6691 48.5775 87.5507C46.5344 87.3434 42.4305 86.6801 42.3594 85.6853C41.6488 83.6422 43.6918 83.198 44.136 83.1092C44.1952 82.9612 45.2375 82.7539 48.9328 83.1092C50.887 83.2971 50.887 83.731 54.8843 83.731C52.634 82.5762 48.1333 80.1956 48.1333 79.9113C48.1333 79.556 48.2221 77.9571 50.7094 77.8683C51.5088 77.8397 53.848 79.023 54.1737 79.6448C55.6542 80.3851 58.7928 81.8656 59.5035 81.8656C60.2141 81.8656 62.7013 82.2209 63.5008 81.8656C61.9907 81.2142 58.9172 79.858 58.704 79.6448C58.4908 79.4317 56.7201 79.0231 55.8615 78.8454C55.7134 77.9275 56.0747 76.1983 58.704 76.6247C59.77 76.7668 60.3918 77.0984 60.5694 77.2465C62.6125 78.1348 67.1961 79.4672 67.4093 79.4672C70.163 76.98 74.9598 74.2263 74.338 72.1832C74.0123 71.591 72.9345 70.4066 71.2289 70.4066C67.8534 69.8737 64.8332 69.7848 62.879 67.2976C61.9907 66.4093 60.9247 65.521 61.1912 63.8333C61.2504 63.3595 61.7064 62.4653 63.0566 62.6785C64.7444 62.945 66.0768 64.0109 67.1428 64.0998C67.9955 64.1708 69.097 64.3662 69.5412 64.4551C70.4887 64.7808 72.4548 65.4322 72.739 65.4322C73.0943 65.4322 78.7794 66.1428 79.1347 66.1428C79.4901 66.1428 86.2411 67.2976 87.6624 67.8306C89.0836 68.3636 89.8831 68.1859 91.6597 69.0742C93.4363 69.9625 97.6112 72.1832 98.1442 72.1832C98.6772 72.1832 101.875 73.9598 102.408 73.9598C102.941 73.9598 98.4995 84.264 95.4793 86.9289Z" fill="url(#paint3_radial_3_26)"/>
<path d="M25.3042 53.0849C24.8778 53.0139 19.0861 50.2128 16.2436 48.8211C16.5989 45.1969 20.1225 38.3689 21.8398 35.4079C21.9287 35.171 22.1596 34.8394 22.3728 35.4079C22.6393 36.1185 24.7712 35.7632 25.393 35.7632C26.0148 35.7632 26.5478 36.6515 27.5249 36.7403C33.2988 37.0068 48.3998 33.809 48.7551 33.809C49.1104 33.809 54.7067 32.0324 55.1508 31.9436C60.1253 31.5882 65.0109 30.6703 69.7188 30.0781C70.2814 29.9893 71.2289 30.167 71.3178 31.5882C71.6731 32.8319 68.9194 34.0755 67.7646 34.4308C68.8305 34.6973 72.5614 34.9638 74.1603 35.7632C74.6044 37.6286 73.8938 38.6266 71.0513 38.9611C69.5412 39.1387 66.3433 38.3393 65.8103 38.4281C65.384 38.4991 62.8494 38.28 61.6354 38.1616C61.9019 38.2504 63.7673 39.2275 64.3002 39.494C64.6556 39.494 67.2316 41.4483 67.9422 41.7148C68.5108 41.928 68.5344 42.2774 68.4752 42.4254C67.9422 44.1132 66.3433 44.1132 65.455 43.9355C64.2114 43.9355 61.813 41.7148 61.3689 41.7148C60.9247 41.7148 59.0593 40.7376 57.9045 40.2935C56.7498 39.8494 52.5748 40.027 52.9301 40.027C53.2143 40.027 55.1212 40.9745 56.0391 41.4483C56.6609 41.6259 57.0162 42.1589 57.9045 42.4254C58.3309 42.4254 59.5627 42.8399 60.1253 43.0472C60.4214 43.1064 60.8892 43.4736 60.3918 44.4685C59.77 45.7121 57.9045 45.1791 57.3716 45.1791C56.8386 45.1791 54.9732 44.0243 54.2625 43.9355C53.5519 43.8467 52.1306 43.4025 51.42 43.2249C50.7094 43.0472 49.4658 42.4254 49.1993 42.4254C48.9861 42.4254 46.9785 44.0836 46.0014 44.9126C45.2908 45.1969 42.8036 47.3998 42.3594 48.1993C42.0633 49.3837 41.9153 50.42 44.136 51.3972C46.2679 51.1129 49.1104 51.9301 50.2652 52.3743C51.5977 52.6408 55.4173 55.5721 55.4173 57.6152C54.8843 59.8359 53.1078 59.1253 52.3083 58.77C51.6687 58.4857 49.5546 57.8817 48.5775 57.6152C47.5115 57.6152 46.0014 57.0071 45.5573 56.9046C44.4025 56.6381 44.136 56.1939 42.3594 56.1051C40.9381 56.0341 37.5626 55.7202 36.0525 55.5721C35.7564 55.4537 34.4181 55.0925 31.4334 54.595C27.7026 53.9732 25.8372 53.1737 25.3042 53.0849Z" fill="#9AE0D3"/>
<path d="M25.3042 53.0849C24.8778 53.0139 19.0861 50.2128 16.2436 48.8211C16.5989 45.1969 20.1225 38.3689 21.8398 35.4079C21.9287 35.171 22.1596 34.8394 22.3728 35.4079C22.6393 36.1185 24.7712 35.7632 25.393 35.7632C26.0148 35.7632 26.5478 36.6515 27.5249 36.7403C33.2988 37.0068 48.3998 33.809 48.7551 33.809C49.1104 33.809 54.7067 32.0324 55.1508 31.9436C60.1253 31.5882 65.0109 30.6703 69.7188 30.0781C70.2814 29.9893 71.2289 30.167 71.3178 31.5882C71.6731 32.8319 68.9194 34.0755 67.7646 34.4308C68.8305 34.6973 72.5614 34.9638 74.1603 35.7632C74.6044 37.6286 73.8938 38.6266 71.0513 38.9611C69.5412 39.1387 66.3433 38.3393 65.8103 38.4281C65.384 38.4991 62.8494 38.28 61.6354 38.1616C61.9019 38.2504 63.7673 39.2275 64.3002 39.494C64.6556 39.494 67.2316 41.4483 67.9422 41.7148C68.5108 41.928 68.5344 42.2774 68.4752 42.4254C67.9422 44.1132 66.3433 44.1132 65.455 43.9355C64.2114 43.9355 61.813 41.7148 61.3689 41.7148C60.9247 41.7148 59.0593 40.7376 57.9045 40.2935C56.7498 39.8494 52.5748 40.027 52.9301 40.027C53.2143 40.027 55.1212 40.9745 56.0391 41.4483C56.6609 41.6259 57.0162 42.1589 57.9045 42.4254C58.3309 42.4254 59.5627 42.8399 60.1253 43.0472C60.4214 43.1064 60.8892 43.4736 60.3918 44.4685C59.77 45.7121 57.9045 45.1791 57.3716 45.1791C56.8386 45.1791 54.9732 44.0243 54.2625 43.9355C53.5519 43.8467 52.1306 43.4025 51.42 43.2249C50.7094 43.0472 49.4658 42.4254 49.1993 42.4254C48.9861 42.4254 46.9785 44.0836 46.0014 44.9126C45.2908 45.1969 42.8036 47.3998 42.3594 48.1993C42.0633 49.3837 41.9153 50.42 44.136 51.3972C46.2679 51.1129 49.1104 51.9301 50.2652 52.3743C51.5977 52.6408 55.4173 55.5721 55.4173 57.6152C54.8843 59.8359 53.1078 59.1253 52.3083 58.77C51.6687 58.4857 49.5546 57.8817 48.5775 57.6152C47.5115 57.6152 46.0014 57.0071 45.5573 56.9046C44.4025 56.6381 44.136 56.1939 42.3594 56.1051C40.9381 56.0341 37.5626 55.7202 36.0525 55.5721C35.7564 55.4537 34.4181 55.0925 31.4334 54.595C27.7026 53.9732 25.8372 53.1737 25.3042 53.0849Z" fill="url(#paint4_radial_3_26)"/>
<path d="M95.3407 87.1369L95.5006 87.2435L95.6447 87.1163C96.4286 86.4247 97.2882 85.2548 98.1234 83.9101C98.9619 82.5601 99.7876 81.0144 100.501 79.5547C101.214 78.0951 101.816 76.7171 102.208 75.7014C102.404 75.1949 102.549 74.7721 102.629 74.472C102.668 74.3251 102.695 74.1924 102.701 74.0893C102.703 74.0418 102.703 73.9717 102.678 73.9038C102.665 73.8672 102.64 73.8173 102.59 73.7757C102.536 73.7305 102.471 73.7098 102.408 73.7098C102.408 73.7098 102.407 73.7098 102.403 73.7095C102.4 73.7092 102.395 73.7086 102.389 73.7077C102.376 73.7057 102.359 73.7023 102.338 73.6971C102.295 73.6866 102.241 73.6702 102.176 73.6474C102.045 73.6018 101.881 73.5352 101.692 73.4529C101.313 73.2885 100.851 73.0685 100.384 72.8458L100.38 72.8443C99.9164 72.6233 99.447 72.3998 99.06 72.2315C98.8662 72.1473 98.6889 72.0751 98.5408 72.0235C98.4036 71.9757 98.2583 71.9332 98.1442 71.9332C98.1444 71.9332 98.1442 71.9332 98.1438 71.9332C98.1404 71.9328 98.1182 71.9304 98.069 71.9169C98.0184 71.9031 97.9528 71.8815 97.8723 71.8516C97.7113 71.792 97.5034 71.7044 97.2585 71.5943C96.7692 71.3744 96.1456 71.071 95.4801 70.7382C94.8152 70.4057 94.1111 70.0454 93.4615 69.7123L93.2667 69.6124C92.6939 69.3186 92.1721 69.0509 91.7715 68.8506C90.8601 68.3949 90.1956 68.2114 89.582 68.0751C89.4608 68.0482 89.3428 68.0233 89.2263 67.9987C88.7534 67.8989 88.3031 67.8039 87.7501 67.5965C87.3753 67.4559 86.6693 67.2804 85.8337 67.0978C84.9918 66.9138 84.0008 66.719 83.0445 66.5411C82.0881 66.3631 81.1648 66.2018 80.458 66.0849C80.1047 66.0265 79.8047 65.9791 79.5813 65.9462C79.4698 65.9297 79.3762 65.9167 79.3042 65.9078C79.2384 65.8997 79.1753 65.8928 79.1347 65.8928C79.1064 65.8928 78.9946 65.8837 78.7979 65.8636C78.6091 65.8443 78.3576 65.8167 78.0636 65.7834C77.4758 65.7168 76.7213 65.6281 75.9661 65.5392L75.9655 65.5392C75.2108 65.4504 74.4554 65.3615 73.8664 65.2948C73.5719 65.2615 73.3182 65.2336 73.1267 65.214C72.9431 65.1953 72.7995 65.1822 72.739 65.1822C72.7395 65.1822 72.7394 65.1822 72.7388 65.1821C72.7365 65.182 72.7266 65.1812 72.7063 65.1779C72.6826 65.1742 72.6517 65.1681 72.6132 65.1595C72.5363 65.1424 72.437 65.1169 72.3194 65.0844C72.0845 65.0194 71.7857 64.9288 71.464 64.8273C70.8212 64.6246 70.0949 64.3811 69.6224 64.2186L69.6066 64.2132L69.5902 64.2099C69.1426 64.1204 68.0303 63.9228 67.1635 63.8506C66.708 63.8127 66.1862 63.5728 65.5357 63.2738C65.5032 63.2589 65.4704 63.2438 65.4372 63.2285C64.7604 62.9179 63.9772 62.5708 63.0956 62.4316C62.3569 62.3149 61.8276 62.4991 61.4744 62.8108C61.1325 63.1126 60.9804 63.5121 60.9437 63.7981C60.6788 65.4863 61.6616 66.4513 62.4925 67.2673C62.5602 67.3337 62.6269 67.3992 62.6918 67.464C63.71 68.7539 65.0033 69.4178 66.4533 69.8256C67.5118 70.1233 68.6729 70.2886 69.8757 70.4597C70.3093 70.5214 70.7483 70.5839 71.1899 70.6536L71.2093 70.6566H71.2289C72.7916 70.6566 73.7924 71.731 74.1059 72.2805C74.2155 72.6765 74.0809 73.1411 73.6995 73.691C73.313 74.2482 72.7057 74.8448 71.9769 75.4688C71.3195 76.0315 70.5761 76.6059 69.8265 77.1851C69.7471 77.2465 69.6676 77.3079 69.5881 77.3694C68.7978 77.9806 68.0104 78.5962 67.3339 79.199C67.2974 79.1905 67.2526 79.1795 67.1997 79.166C67.0529 79.1286 66.8506 79.0737 66.6058 79.0046C66.1166 78.8664 65.4619 78.6728 64.7498 78.4513C63.3361 78.0115 61.7092 77.4662 60.6989 77.0302C60.4475 76.8384 59.7878 76.5175 58.7405 76.3773C57.3727 76.1563 56.522 76.4879 56.047 77.0735C55.5864 77.6414 55.5339 78.3844 55.6147 78.8852L55.6421 79.0553L55.8108 79.0902C56.2374 79.1785 56.8903 79.3241 57.4615 79.4737C57.7475 79.5486 58.0091 79.6235 58.2103 79.6917C58.3112 79.726 58.3927 79.7571 58.4528 79.7843C58.5217 79.8156 58.5355 79.8299 58.5272 79.8216C58.562 79.8564 58.6076 79.8868 58.6431 79.9093C58.6838 79.9349 58.7334 79.9635 58.7894 79.9941C58.9016 80.0555 59.049 80.1304 59.2212 80.2147C59.5661 80.3836 60.02 80.5946 60.5126 80.8185C61.2065 81.1338 61.9805 81.4762 62.6417 81.7651C62.6369 81.7653 62.632 81.7656 62.6272 81.7658C62.2829 81.7819 61.8845 81.7713 61.4825 81.7492C61.1126 81.729 60.7448 81.6994 60.4182 81.6731L60.3354 81.6664C59.9943 81.639 59.6936 81.6156 59.5035 81.6156C59.4488 81.6156 59.3482 81.5998 59.1958 81.5591C59.0484 81.5196 58.8689 81.4614 58.6638 81.3875C58.254 81.2399 57.7545 81.0341 57.2274 80.8038C56.2043 80.3566 55.0894 79.8219 54.3503 79.4536C54.2931 79.3677 54.2179 79.285 54.1363 79.2075C54.0286 79.1053 53.8975 79.0007 53.7526 78.8974C53.4625 78.6905 53.1034 78.479 52.7328 78.29C52.3619 78.1008 51.9737 77.9313 51.6239 77.8101C51.283 77.6921 50.9496 77.6095 50.7004 77.6184C49.3993 77.6649 48.6754 78.1113 48.2869 78.6422C47.907 79.1613 47.8833 79.7145 47.8833 79.9113C47.8833 79.995 47.921 80.0568 47.9383 80.0827C47.9598 80.1149 47.9853 80.143 48.0081 80.1656C48.0542 80.2115 48.1149 80.2606 48.1821 80.3105C48.3184 80.4116 48.5104 80.5369 48.7407 80.6786C49.203 80.963 49.8401 81.3256 50.5443 81.7137C51.6017 82.2964 52.8172 82.9401 53.8341 83.4694C52.5229 83.4383 51.7705 83.3481 51.1861 83.2444C50.9617 83.2046 50.7559 83.1613 50.5488 83.1178C50.0955 83.0224 49.6352 82.9256 48.9567 82.8604C47.1039 82.6822 45.9074 82.6441 45.162 82.6706C44.7903 82.6838 44.5229 82.7133 44.339 82.7522C44.2479 82.7715 44.1677 82.7951 44.1026 82.8252C44.0795 82.8359 44.0451 82.8532 44.0103 82.8798C43.7346 82.9386 43.1372 83.0906 42.6596 83.4683C42.3904 83.6812 42.1516 83.9715 42.0352 84.3619C41.9206 84.746 41.9318 85.2023 42.1137 85.7395C42.1393 85.9355 42.2544 86.0975 42.3935 86.2261C42.5421 86.3635 42.7408 86.4846 42.9652 86.5926C43.4153 86.8091 44.0185 86.9967 44.6694 87.1561C45.559 87.3741 46.5618 87.5453 47.4358 87.6652C47.122 87.8144 46.7992 88.0011 46.4986 88.2122C46.1485 88.4581 45.8174 88.7446 45.5585 89.0566C45.301 89.3668 45.1032 89.7164 45.0439 90.0872C44.9467 90.6946 45.0635 91.1575 45.3447 91.488C45.6188 91.81 46.0157 91.966 46.3995 92.038C47.1627 92.1811 48.0036 92.0158 48.1939 91.9682C48.2694 91.9493 48.7473 91.8684 49.4559 91.7531C50.1549 91.6394 51.0595 91.4951 51.9699 91.3508C52.7815 91.2221 53.5984 91.0933 54.2781 90.9861C55.1219 90.8531 55.7543 90.7534 55.9026 90.7286C56.0442 90.705 56.6214 90.6478 57.3942 90.5712C58.0233 90.5088 58.782 90.4335 59.5409 90.3531C60.3797 90.2643 61.2131 90.1695 61.8545 90.0801C62.1746 90.0355 62.4509 89.9916 62.6574 89.9498C62.7601 89.9291 62.8507 89.9078 62.9228 89.8858C62.9586 89.8749 62.9947 89.8624 63.0274 89.8478C63.0522 89.8367 63.0945 89.8162 63.1332 89.7813C63.1367 89.7792 63.1441 89.7749 63.1569 89.7684C63.1849 89.7542 63.2256 89.7359 63.2803 89.7137C63.3891 89.6695 63.5392 89.6153 63.7232 89.5534C64.0905 89.4297 64.58 89.2792 65.1172 89.1207C66.1812 88.8067 67.4232 88.4642 68.2512 88.2423C69.2031 88.1675 70.6917 88.0257 72.0966 87.8407C72.8046 87.7475 73.4938 87.6429 74.0835 87.53C74.6421 87.423 75.1269 87.3057 75.4544 87.1779C75.6422 87.1715 75.9651 87.1326 76.3731 87.0743C76.8281 87.0094 77.4086 86.9175 78.069 86.8091C78.7315 86.7005 79.4806 86.5743 80.2666 86.4418C81.0415 86.3113 81.8522 86.1747 82.6509 86.0429C84.2664 85.7765 85.8472 85.5274 87.0397 85.3781C87.6369 85.3034 88.1306 85.2545 88.4804 85.2404C88.6568 85.2332 88.7868 85.2354 88.8718 85.245C88.893 85.2474 88.9086 85.2499 88.9196 85.2521C89.8422 86.0814 90.6405 86.3002 91.3892 86.3124C91.7213 86.3179 92.0413 86.2824 92.341 86.2493C92.3698 86.2461 92.3984 86.2429 92.4268 86.2398C92.7371 86.2059 93.0271 86.1785 93.3192 86.1941C93.3357 86.2024 93.3542 86.2112 93.3737 86.2202C93.4254 86.2442 93.495 86.2748 93.5755 86.3097C93.6406 86.3379 93.7127 86.3688 93.7903 86.4021C93.9085 86.4528 94.0394 86.509 94.1774 86.5691C94.6395 86.7705 95.1239 86.9924 95.3407 87.1369ZM88.9399 85.2572C88.9438 85.2586 88.9428 85.2586 88.9386 85.2567C88.9391 85.2569 88.9396 85.257 88.9399 85.2572ZM15.9948 48.7967L15.9779 48.9694L16.1337 49.0456C17.5554 49.7417 19.7149 50.7903 21.5726 51.674C22.5012 52.1158 23.3555 52.5168 24.0048 52.812C24.3293 52.9595 24.6041 53.0814 24.8121 53.1688C24.9159 53.2125 25.005 53.2484 25.0762 53.2749C25.1403 53.2988 25.2094 53.3226 25.2631 53.3315C25.3746 53.3501 25.5705 53.4096 25.8869 53.5093C25.9168 53.5188 25.9475 53.5285 25.9792 53.5385C26.2736 53.6314 26.646 53.7491 27.1002 53.8803C28.1074 54.1713 29.516 54.5289 31.3923 54.8416C34.3805 55.3396 35.6925 55.6974 35.9597 55.8043L35.9927 55.8175L36.0281 55.8209C37.5365 55.9688 40.9185 56.2834 42.3469 56.3548C43.2109 56.398 43.6974 56.5265 44.107 56.6735C44.219 56.7137 44.3299 56.7574 44.4443 56.8024C44.7447 56.9207 45.0695 57.0486 45.501 57.1482C45.5989 57.1707 45.7637 57.2236 45.9897 57.2967L46.0089 57.303C46.2254 57.373 46.4854 57.4572 46.7643 57.5384C47.322 57.7007 47.9797 57.8588 48.5432 57.865C49.0315 57.9985 49.7849 58.2109 50.4974 58.4253C51.2321 58.6464 51.9042 58.864 52.2068 58.9984C52.6018 59.174 53.3018 59.4697 53.9854 59.4076C54.3369 59.3756 54.6896 59.2489 54.9909 58.9642C55.2896 58.6817 55.5194 58.2613 55.6604 57.6736L55.6673 57.6448V57.6152C55.6673 57.0321 55.3976 56.4159 55.0075 55.8328C54.614 55.2448 54.0798 54.6634 53.5093 54.1437C52.9381 53.6234 52.3241 53.1592 51.7658 52.8069C51.2253 52.4658 50.7139 52.2147 50.3358 52.1336C49.743 51.9071 48.7396 51.5921 47.6161 51.3674C46.5073 51.1457 45.2627 51.0079 44.1737 51.1403C43.1338 50.6725 42.7024 50.2157 42.5372 49.7862C42.3687 49.348 42.4493 48.8761 42.5936 48.2936C42.695 48.1233 42.9068 47.8668 43.1973 47.5605C43.4983 47.2432 43.8679 46.8887 44.2473 46.549C44.6266 46.2092 45.0128 45.8867 45.3465 45.6325C45.6885 45.3721 45.9523 45.2015 46.0943 45.1447L46.1321 45.1296L46.1632 45.1033C46.6506 44.6897 47.3946 44.0697 48.0426 43.5537C48.3669 43.2954 48.6647 43.0651 48.8933 42.9002C49.0081 42.8174 49.1017 42.7538 49.1706 42.7119C49.1933 42.6981 49.2114 42.6878 49.2253 42.6805C49.2369 42.6831 49.2528 42.687 49.2736 42.6929C49.3256 42.7077 49.392 42.7302 49.472 42.7598C49.6296 42.8181 49.8239 42.8978 50.0379 42.9856L50.0482 42.9898L50.0498 42.9904C50.476 43.1653 50.983 43.3733 51.3594 43.4674C51.572 43.5206 51.8459 43.597 52.1485 43.6815C52.3483 43.7372 52.5606 43.7965 52.7759 43.8548C53.3063 43.9985 53.856 44.1366 54.2315 44.1836C54.3707 44.201 54.5915 44.2763 54.8751 44.3973C55.1511 44.515 55.4611 44.6644 55.7726 44.8146L55.7751 44.8158C56.0843 44.9649 56.3959 45.1151 56.664 45.2278C56.7982 45.2842 56.9261 45.3331 57.0407 45.3683C57.1511 45.4022 57.2671 45.4291 57.3716 45.4291C57.4528 45.4291 57.5716 45.4441 57.7345 45.4646C57.7997 45.4728 57.872 45.4819 57.9517 45.4912C58.2149 45.5222 58.5326 45.5518 58.8574 45.54C59.4994 45.5166 60.2423 45.3263 60.6154 44.5803C60.8812 44.0486 60.9173 43.6284 60.7874 43.312C60.6617 43.006 60.4042 42.8546 60.1952 42.8066C59.9095 42.7017 59.4649 42.548 59.0357 42.4191C58.817 42.3535 58.5997 42.2935 58.408 42.2497C58.2394 42.2112 58.0756 42.1815 57.9447 42.1762C57.555 42.0545 57.2775 41.877 57.0125 41.6968C56.9895 41.6812 56.9664 41.6653 56.9431 41.6494C56.7036 41.4854 56.4482 41.3105 56.1326 41.2152C55.6716 40.9775 54.9746 40.6271 54.3537 40.3339C54.2883 40.303 54.2236 40.2727 54.16 40.2432C54.3752 40.2415 54.6077 40.2414 54.8486 40.2437C55.4174 40.2492 56.0296 40.2685 56.5693 40.3136C57.1177 40.3594 57.5629 40.4299 57.8148 40.5268C58.2553 40.6963 58.8007 40.9445 59.3372 41.1886C59.4934 41.2596 59.6488 41.3303 59.8006 41.3987C60.134 41.5487 60.4503 41.6872 60.7126 41.7884C60.8437 41.839 60.965 41.8817 61.0707 41.9121C61.1678 41.9401 61.2697 41.9632 61.3596 41.9647C61.3631 41.9656 61.3711 41.9679 61.3845 41.973C61.4123 41.9837 61.4506 42.0019 61.5006 42.0293C61.6005 42.0842 61.7276 42.1655 61.8794 42.2686C62.0296 42.3705 62.1983 42.4898 62.3817 42.6195L62.3847 42.6216C62.5686 42.7516 62.7665 42.8914 62.9709 43.0314C63.3786 43.3106 63.8193 43.5955 64.2405 43.811C64.6446 44.0179 65.0621 44.178 65.4293 44.1852C65.8942 44.2755 66.5523 44.3215 67.1761 44.1176C67.8233 43.906 68.4181 43.4289 68.7112 42.5083C68.7639 42.3679 68.7671 42.1718 68.6655 41.9783C68.5599 41.7773 68.3548 41.6025 68.03 41.4807C67.8811 41.4248 67.6089 41.2679 67.2575 41.0444C66.9349 40.8392 66.5656 40.5912 66.1993 40.3452L66.1274 40.2969C65.7397 40.0366 65.3581 39.7813 65.0509 39.591C64.8976 39.4961 64.7582 39.4144 64.6432 39.3558C64.5858 39.3266 64.5302 39.3008 64.4792 39.2818C64.451 39.2713 64.4144 39.259 64.374 39.2514C64.2222 39.175 63.9873 39.0543 63.7177 38.9158C63.4875 38.7975 63.232 38.6662 62.9814 38.5385C62.9786 38.537 62.9757 38.5356 62.9728 38.5341C63.3127 38.5628 63.6642 38.5909 64.0002 38.6152C64.4207 38.6457 64.8185 38.6703 65.1391 38.6829C65.4478 38.695 65.7143 38.6975 65.8514 38.6747C65.8827 38.6695 65.9617 38.6686 66.1037 38.6817C66.238 38.6941 66.4069 38.7165 66.6047 38.7461C66.8297 38.7798 67.0831 38.8215 67.3573 38.8665C67.5688 38.9013 67.7927 38.9381 68.0254 38.9748C69.072 39.1401 70.2848 39.303 71.0805 39.2093C72.5121 39.0409 73.481 38.7002 74.0232 38.1045C74.5829 37.4896 74.6332 36.6701 74.4035 35.7053L74.3765 35.5918L74.2721 35.5396C73.4326 35.1198 72.0616 34.8491 70.8016 34.6502C70.3195 34.5741 69.8464 34.5075 69.418 34.4472C69.2818 34.428 69.1501 34.4095 69.0241 34.3915C68.9159 34.376 68.8123 34.361 68.7138 34.3464C69.2063 34.1391 69.7583 33.8667 70.2434 33.5524C70.6483 33.2901 71.0224 32.9885 71.2738 32.6586C71.5202 32.335 71.6703 31.9527 71.5656 31.5469C71.5128 30.7929 71.2282 30.3197 70.8341 30.0585C70.4488 29.8032 70.0039 29.7808 69.6839 29.8306C68.0628 30.0345 66.4268 30.276 64.7765 30.5195C61.6128 30.9864 58.3966 31.4611 55.133 31.6942L55.1173 31.6953L55.1018 31.6984C54.9754 31.7237 54.5253 31.8569 53.9418 32.0332C53.5956 32.1378 53.1945 32.26 52.7717 32.3889C52.4705 32.4807 52.1583 32.5758 51.847 32.6704C51.0975 32.898 50.3523 33.1224 49.7725 33.2898C49.4824 33.3736 49.2355 33.4426 49.0509 33.4905C48.9585 33.5145 48.8837 33.5326 48.8281 33.5446C48.788 33.5532 48.7663 33.5567 48.7576 33.558C48.7522 33.5589 48.7518 33.559 48.7551 33.559C48.7207 33.559 48.6742 33.566 48.6412 33.5711C48.5993 33.5775 48.5443 33.5869 48.4779 33.5987C48.3448 33.6223 48.1602 33.6568 47.9311 33.7002C47.7227 33.7398 47.4744 33.7873 47.1922 33.8414C46.857 33.9056 46.4739 33.9789 46.0533 34.0589C44.4981 34.3544 42.3987 34.7454 40.1304 35.1281C35.586 35.8947 30.3987 36.6214 27.5422 36.4909C27.1278 36.4517 26.7992 36.2448 26.4691 36.0137C26.4446 35.9965 26.4199 35.9791 26.3949 35.9615C26.2577 35.8647 26.1139 35.7633 25.9723 35.6848C25.802 35.5904 25.6087 35.5132 25.393 35.5132C25.2548 35.5132 25.0507 35.5292 24.8252 35.5469C24.7768 35.5507 24.7273 35.5545 24.6773 35.5584C24.3866 35.5805 24.0615 35.602 23.7497 35.602C23.4347 35.602 23.1499 35.5798 22.9348 35.5218C22.7097 35.4611 22.6297 35.3809 22.6069 35.3201C22.5486 35.1648 22.4758 35.031 22.3742 34.9444C22.3199 34.8982 22.2529 34.8617 22.1742 34.8489C22.0948 34.8359 22.0214 34.8499 21.9601 34.8766C21.8473 34.9255 21.7704 35.0185 21.7234 35.0882C21.6771 35.1567 21.6404 35.2319 21.6137 35.2995C20.7513 36.7878 19.4427 39.2337 18.303 41.7631C17.1632 44.293 16.1769 46.9395 15.9948 48.7967ZM49.2547 42.6667C49.2546 42.6668 49.253 42.6674 49.2502 42.6683C49.2534 42.667 49.2549 42.6665 49.2547 42.6667Z" stroke="black" stroke-opacity="0.1" stroke-width="0.5"/>
</g>
</g>
<defs>
<filter id="filter0_d_3_26" x="0.9" y="0.9" width="130.273" height="130.273" filterUnits="userSpaceOnUse" color-interpolation-filters="sRGB">
<feFlood flood-opacity="0" result="BackgroundImageFix"/>
<feColorMatrix in="SourceAlpha" type="matrix" values="0 0 0 0 0 0 0 0 0 0 0 0 0 0 0 0 0 0 127 0" result="hardAlpha"/>
<feOffset dx="6" dy="7"/>
<feGaussianBlur stdDeviation="10.05"/>
<feComposite in2="hardAlpha" operator="out"/>
<feColorMatrix type="matrix" values="0 0 0 0 0.496076 0 0 0 0 0.654167 0 0 0 0 0.635996 0 0 0 1 0"/>
<feBlend mode="normal" in2="BackgroundImageFix" result="effect1_dropShadow_3_26"/>
<feBlend mode="normal" in="SourceGraphic" in2="effect1_dropShadow_3_26" result="shape"/>
</filter>
<linearGradient id="paint0_linear_3_26" x1="22.7761" y1="45.0071" x2="80.9023" y2="105.077" gradientUnits="userSpaceOnUse">
<stop offset="0.0843672" stop-color="#D8E6EF"/>
<stop offset="1" stop-color="#B4D8E4"/>
</linearGradient>
<linearGradient id="paint1_linear_3_26" x1="59.8588" y1="14" x2="59.8588" y2="96.9666" gradientUnits="userSpaceOnUse">
<stop stop-color="#89C8DD"/>
<stop offset="1" stop-color="#73ADC1"/>
</linearGradient>
<radialGradient id="paint2_radial_3_26" cx="0" cy="0" r="1" gradientUnits="userSpaceOnUse" gradientTransform="translate(47.0713 33.1734) rotate(50.5882) scale(91.0772 216.777)">
<stop stop-color="#9AE0D3"/>
<stop offset="0.960747" stop-color="#35A7A0"/>
</radialGradient>
<radialGradient id="paint3_radial_3_26" cx="0" cy="0" r="1" gradientUnits="userSpaceOnUse" gradientTransform="translate(36.4843 29.3985) rotate(45.7899) scale(108.67 167.678)">
<stop offset="0.104572" stop-color="#EBF3F5"/>
<stop offset="1" stop-color="#C5E2F0"/>
</radialGradient>
<radialGradient id="paint4_radial_3_26" cx="0" cy="0" r="1" gradientUnits="userSpaceOnUse" gradientTransform="translate(36.4843 29.3985) rotate(45.7899) scale(108.67 167.678)">
<stop offset="0.104572" stop-color="#EBF3F5"/>
<stop offset="1" stop-color="#C5E2F0"/>
</radialGradient>
</defs>
</svg>
